<?xml version="1.0" encoding="UTF-8"?>
<svg version="1.1" xmlns="http://www.w3.org/2000/svg" width="316" height="63">
<path d="M0 0 C0.77214844 -0.01611328 1.54429687 -0.03222656 2.33984375 -0.04882812 C8.13688478 -0.05376598 12.33713386 0.97149141 16.73828125 5.03125 C17.21652344 5.6190625 17.69476563 6.206875 18.1875 6.8125 C18.92419922 7.69421875 18.92419922 7.69421875 19.67578125 8.59375 C25.84274888 17.43240067 21.36816902 34.42774894 19.8125 44.125 C19.63315918 45.37144287 19.45381836 46.61788574 19.26904297 47.90209961 C17.78140306 56.47752506 17.78140306 56.47752506 15.30737305 58.7565918 C13.5078125 59.5625 13.5078125 59.5625 9.875 60.3125 C9.01777344 60.55355469 8.16054688 60.79460938 7.27734375 61.04296875 C-3.60382896 63.06055545 -15.31487502 64.38808877 -25.125 58.3125 C-28.65434331 55.18347573 -30.84529942 51.89399877 -31.36328125 47.11328125 C-31.5464711 40.9716004 -30.89053392 36.29988858 -27.125 31.3125 C-20.70062087 24.92064937 -13.31102959 24.21374178 -4.625 24.1875 C-2.45816702 24.21936519 -0.29137509 24.25773209 1.875 24.3125 C2.37 26.7875 2.37 26.7875 2.875 29.3125 C3.09662329 27.68925914 3.30189803 26.063779 3.5 24.4375 C3.61601562 23.53257813 3.73203125 22.62765625 3.8515625 21.6953125 C3.85929687 20.90898437 3.86703125 20.12265625 3.875 19.3125 C2.04298151 17.06068411 2.04298151 17.06068411 -0.6640625 17.046875 C-6.84181283 17.07815475 -12.21289739 17.49339151 -18.125 19.3125 C-22.53274487 11.050541 -22.53274487 11.050541 -23.125 6.3125 C-15.95938921 0.9382919 -8.76288808 -0.03694304 0 0 Z M0.875 35.3125 C0.875 35.9725 0.875 36.6325 0.875 37.3125 C0.11574219 37.27769531 -0.64351563 37.24289063 -1.42578125 37.20703125 C-2.41964844 37.17996094 -3.41351563 37.15289062 -4.4375 37.125 C-5.42363281 37.09019531 -6.40976562 37.05539063 -7.42578125 37.01953125 C-10.140368 37.08862042 -10.140368 37.08862042 -11.9921875 38.6640625 C-13.39185794 40.33295429 -13.39185794 40.33295429 -12.9375 42.875 C-12.27872967 45.45691272 -12.27872967 45.45691272 -10.125 47.3125 C-5.98502433 47.5096417 -3.04796433 47.62015478 0.875 46.3125 C1.205 42.6825 1.535 39.0525 1.875 35.3125 C1.545 35.3125 1.215 35.3125 0.875 35.3125 Z " fill="#45695F" transform="translate(290.125,0.6875)"/>
<path d="M0 0 C4.80154656 4.92790305 6.28476118 9.58834447 6.27734375 16.390625 C6.16485871 24.01571706 5.00832564 31.27790938 3.5625 38.75 C3.33240234 40.00554688 3.10230469 41.26109375 2.86523438 42.5546875 C1.16848645 51.66302711 1.16848645 51.66302711 0 54 C-11.33526344 58.53844839 -26.48638091 60.62935218 -38.09375 56.125 C-42.09754091 53.76210701 -44.93858482 50.12283036 -47 46 C-47.50178565 39.55398432 -47.96229274 33.41513341 -44 28 C-38.45411205 22.18358093 -32.21206009 20.20140828 -24.2421875 19.8203125 C-20.82217976 19.81340339 -17.41719271 19.86705446 -14 20 C-12.59257978 22.81484045 -13.33347836 24.56936113 -13.9375 27.625 C-14.13214844 28.62789062 -14.32679688 29.63078125 -14.52734375 30.6640625 C-14.76130859 31.82035156 -14.76130859 31.82035156 -15 33 C-15.77085937 33.04898438 -16.54171875 33.09796875 -17.3359375 33.1484375 C-18.33882812 33.22320312 -19.34171875 33.29796875 -20.375 33.375 C-21.37273437 33.44460937 -22.37046875 33.51421875 -23.3984375 33.5859375 C-26.15508879 33.76363964 -26.15508879 33.76363964 -28 36 C-28.16687448 38.58354218 -28.16687448 38.58354218 -28 41 C-25.35541621 42.32229189 -23.32238699 42.09677194 -20.375 42.0625 C-19.37210938 42.05347656 -18.36921875 42.04445312 -17.3359375 42.03515625 C-16.56507813 42.02355469 -15.79421875 42.01195312 -15 42 C-15.03351563 41.04609375 -15.06703125 40.0921875 -15.1015625 39.109375 C-15.10436679 33.54005752 -13.9170334 28.13064526 -12.890625 22.67578125 C-12.74882812 21.85980469 -12.60703125 21.04382813 -12.4609375 20.203125 C-12.32478027 19.46739258 -12.18862305 18.73166016 -12.04833984 17.97363281 C-11.80276892 15.67303066 -11.80276892 15.67303066 -14 13 C-20.81882492 12.02438351 -27.47381205 12.99194217 -34 15 C-34.84324672 13.421924 -35.67423918 11.8372958 -36.5 10.25 C-36.9640625 9.36828125 -37.428125 8.4865625 -37.90625 7.578125 C-39 5 -39 5 -39 1 C-37.60721983 0.34760842 -36.21060788 -0.29660552 -34.8125 -0.9375 C-34.03519531 -1.29714844 -33.25789062 -1.65679687 -32.45703125 -2.02734375 C-22.84691914 -5.83166476 -8.5380285 -6.19425597 0 0 Z " fill="#45695F" transform="translate(216,5)"/>
<path d="M0 0 C1.12535156 0.00580078 1.12535156 0.00580078 2.2734375 0.01171875 C3.02367188 0.00785156 3.77390625 0.00398437 4.546875 0 C10.14682697 0.01010822 10.14682697 0.01010822 11.2734375 1.13671875 C11.07470388 10.01906576 9.19317265 18.824023 7.55859375 27.52734375 C6.57841958 33.05580816 5.95317057 37.64319427 7.2734375 43.13671875 C8.28179812 44.36939223 8.28179812 44.36939223 10.33984375 44.234375 C11.16355469 44.22277344 11.98726562 44.21117187 12.8359375 44.19921875 C14.01144165 44.18266235 14.01144165 44.18266235 15.21069336 44.16577148 C15.89139893 44.15618408 16.57210449 44.14659668 17.2734375 44.13671875 C19.80238936 33.73082884 21.71041014 23.27882131 23.46679688 12.71875 C23.67240234 11.52378906 23.87800781 10.32882812 24.08984375 9.09765625 C24.26974854 8.02306152 24.44965332 6.9484668 24.63500977 5.84130859 C25.2734375 3.13671875 25.2734375 3.13671875 27.2734375 0.13671875 C30.0619664 -0.08435912 32.61996931 -0.1443566 35.3984375 -0.05078125 C36.15253906 -0.03724609 36.90664062 -0.02371094 37.68359375 -0.00976562 C39.54717877 0.0256189 41.41039728 0.07942708 43.2734375 0.13671875 C43.45849196 6.89938342 42.80150098 13.10756314 41.59375 19.75390625 C41.42092499 20.73287872 41.24809998 21.7118512 41.07003784 22.7204895 C40.70559156 24.77332032 40.33730034 26.82547194 39.96533203 28.87695312 C39.39665964 32.02154979 38.84404076 35.16868293 38.29296875 38.31640625 C37.93584767 40.31657643 37.57780729 42.31658274 37.21875 44.31640625 C37.05408234 45.25700897 36.88941467 46.19761169 36.71975708 47.16671753 C36.55974213 48.03837555 36.39972717 48.91003357 36.23486328 49.80810547 C36.09718536 50.57371796 35.95950745 51.33933044 35.81765747 52.12814331 C35.2734375 54.13671875 35.2734375 54.13671875 33.2734375 57.13671875 C22.44246647 61.27797238 9.32746006 63.37528114 -1.72265625 59.10546875 C-6.31199546 56.88684083 -9.52291181 54.22241662 -11.6015625 49.44921875 C-14.4944495 39.71592072 -12.00706252 29.64415735 -10.21801758 19.91088867 C-9.78455815 17.54968194 -9.36496562 15.18630618 -8.94726562 12.82226562 C-8.67787851 11.32147164 -8.40772494 9.82081497 -8.13671875 8.3203125 C-8.01063736 7.61313583 -7.88455597 6.90595917 -7.75465393 6.17735291 C-6.62875481 0.09666649 -6.21889426 0.01122544 0 0 Z " fill="#46695F" transform="translate(71.7265625,1.86328125)"/>
<path d="M0 0 C1.12535156 0.00580078 1.12535156 0.00580078 2.2734375 0.01171875 C3.02367188 0.00785156 3.77390625 0.00398437 4.546875 0 C10.14682697 0.01010822 10.14682697 0.01010822 11.2734375 1.13671875 C11.64714088 3.72265504 11.96496782 6.2941947 12.24609375 8.890625 C12.33346298 9.66607162 12.42083221 10.44151825 12.510849 11.24046326 C12.78996965 13.72627746 13.06301419 16.21271724 13.3359375 18.69921875 C13.52368983 20.38090394 13.7118357 22.06254524 13.90039062 23.74414062 C14.36264715 27.8745039 14.8194541 32.0054383 15.2734375 36.13671875 C19.49631021 28.03120478 22.89914009 19.6073843 26.3828125 11.1640625 C26.85460937 10.03355469 27.32640625 8.90304687 27.8125 7.73828125 C28.23740723 6.71041504 28.66231445 5.68254883 29.10009766 4.62353516 C30.2734375 2.13671875 30.2734375 2.13671875 32.2734375 0.13671875 C35.1827933 -0.00845869 37.9933835 -0.04958921 40.8984375 0.01171875 C41.70023438 0.02074219 42.50203125 0.02976563 43.328125 0.0390625 C45.31002273 0.06265652 47.29176731 0.0985281 49.2734375 0.13671875 C50.2734375 3.13671875 50.2734375 3.13671875 49.42681885 5.44468689 C48.97175964 6.34973465 48.51670044 7.25478241 48.04785156 8.18725586 C47.53691956 9.2151976 47.02598755 10.24313934 46.49957275 11.30223083 C45.93510437 12.41163528 45.37063599 13.52103973 44.7890625 14.6640625 C43.93196686 16.3747567 43.93196686 16.3747567 43.05755615 18.12001038 C41.84474582 20.53587163 40.6283739 22.94948447 39.40527344 25.36010742 C37.84113283 28.44323798 36.28917218 31.53229037 34.74158096 34.62375546 C33.26216074 37.57708647 31.77560424 40.52681115 30.2890625 43.4765625 C29.73269104 44.58394272 29.17631958 45.69132294 28.60308838 46.83226013 C28.07954773 47.86335403 27.55600708 48.89444794 27.01660156 49.95678711 C26.55835999 50.86263046 26.10011841 51.76847382 25.62799072 52.70176697 C24.32833999 55.03802575 23.01168371 57.10561041 21.2734375 59.13671875 C19.1887207 59.59082031 19.1887207 59.59082031 16.82421875 59.52734375 C15.97666016 59.51445313 15.12910156 59.5015625 14.25585938 59.48828125 C13.37478516 59.45476563 12.49371094 59.42125 11.5859375 59.38671875 C10.24692383 59.35964844 10.24692383 59.35964844 8.88085938 59.33203125 C6.67724781 59.28489517 4.47606907 59.21569815 2.2734375 59.13671875 C0.67395865 53.1073751 -0.47847169 47.10037102 -1.453125 40.94140625 C-1.60566742 39.9903299 -1.75820984 39.03925354 -1.91537476 38.05935669 C-2.23474976 36.0611762 -2.55231836 34.06270623 -2.86816406 32.06396484 C-3.35136037 29.01299502 -3.84331354 25.96352256 -4.3359375 22.9140625 C-4.64636329 20.96492808 -4.95627672 19.01571197 -5.265625 17.06640625 C-5.41246735 16.16002411 -5.55930969 15.25364197 -5.71060181 14.3197937 C-6.40287068 9.8943313 -7.00971991 5.6321798 -6.7265625 1.13671875 C-4.90540247 -0.68444128 -2.41984486 0.00436795 0 0 Z " fill="#46695F" transform="translate(124.7265625,1.86328125)"/>
<path d="M0 0 C17.16 0 34.32 0 52 0 C52.98693681 4.93468405 53.19768435 7.61292445 51 12 C46.28524303 18.64686228 40.62697808 24.56235851 35.0859375 30.52050781 C32.11324502 33.73126411 29.30089606 37.02564668 26.5625 40.4375 C25.83546875 41.31921875 25.1084375 42.2009375 24.359375 43.109375 C23.11075523 44.63914095 21.86733255 46.17396774 20.66992188 47.74414062 C12.44755635 58.4823899 12.44755635 58.4823899 6.12109375 59.8203125 C2.6493099 59.81330587 -0.58235816 59.59151493 -4 59 C-4.24262844 53.8950976 -4.11748548 49.63913823 -1.17578125 45.32421875 C1.14107277 42.79495367 3.53896778 40.38864892 6 38 C7.14068563 36.74322689 8.26690756 35.47310239 9.375 34.1875 C9.92027344 33.56230469 10.46554688 32.93710937 11.02734375 32.29296875 C15.38694959 27.22546651 19.69151732 22.11096679 24 17 C23.25314941 16.98541748 22.50629883 16.97083496 21.73681641 16.95581055 C18.36567748 16.88152054 14.99554995 16.78479801 11.625 16.6875 C10.449375 16.66494141 9.27375 16.64238281 8.0625 16.61914062 C6.94101563 16.58369141 5.81953125 16.54824219 4.6640625 16.51171875 C3.62717285 16.48553467 2.5902832 16.45935059 1.52197266 16.43237305 C0.68972168 16.28968994 -0.1425293 16.14700684 -1 16 C-1.66 15.01 -2.32 14.02 -3 13 C-2.01 8.71 -1.02 4.42 0 0 Z " fill="#45695F" transform="translate(9,2)"/>
<path d="M0 0 C-0.11512153 1.72985242 -0.24255677 3.45888751 -0.375 5.1875 C-0.44460938 6.15042969 -0.51421875 7.11335937 -0.5859375 8.10546875 C-1 11 -1 11 -3 16 C-7.95 16 -12.9 16 -18 16 C-18.27714844 18.00449219 -18.55429688 20.00898438 -18.83984375 22.07421875 C-19.92752773 29.68225673 -21.20853314 37.24715997 -22.5625 44.8125 C-22.78357422 46.07642578 -23.00464844 47.34035156 -23.23242188 48.64257812 C-23.44576172 49.83947266 -23.65910156 51.03636719 -23.87890625 52.26953125 C-24.16616577 53.88758667 -24.16616577 53.88758667 -24.45922852 55.53833008 C-25 58 -25 58 -26 59 C-28.86267567 59.07325168 -31.700719 59.09238205 -34.5625 59.0625 C-35.36880859 59.05798828 -36.17511719 59.05347656 -37.00585938 59.04882812 C-39.00393756 59.03700518 -41.00197783 59.01906914 -43 59 C-42.4828402 48.94053252 -40.79745391 39.12520222 -39.04370117 29.22460938 C-38.55884518 26.47930607 -38.08660146 23.73202282 -37.61523438 20.984375 C-37.30804191 19.22903521 -37.00012558 17.4738219 -36.69140625 15.71875 C-36.55174942 14.90208862 -36.41209259 14.08542725 -36.26820374 13.24401855 C-34.93931234 5.84203328 -34.93931234 5.84203328 -33 3 C-23.85325146 -1.74167444 -9.85282573 -3.28427524 0 0 Z " fill="#45695F" transform="translate(264,2)"/>
<path d="M0 0 C0.20818303 5.93321622 -0.26379884 8.92329596 -2 15 C-10.91 15 -19.82 15 -29 15 C-27.02 12.36 -25.04 9.72 -23 7 C-22.236875 5.68 -21.47375 4.36 -20.6875 3 C-16.06047596 -2.55999346 -6.47478393 -0.45424431 0 0 Z " fill="#45695F" transform="translate(54,46)"/>
</svg>
