<svg width="900" height="1200" viewBox="0 0 900 1200" fill="none" xmlns="http://www.w3.org/2000/svg">
  <defs>
    <linearGradient id="bg2" x1="0" y1="0" x2="0" y2="1">
      <stop offset="0" stop-color="#F4F4F4"/>
      <stop offset="1" stop-color="#DADADA"/>
    </linearGradient>
    <linearGradient id="pack2" x1="0" y1="0" x2="1" y2="1">
      <stop offset="0" stop-color="#E7E7E7"/>
      <stop offset="1" stop-color="#BDBDBD"/>
    </linearGradient>
  </defs>

  <rect width="900" height="1200" fill="url(#bg2)"/>
  <rect x="125" y="175" width="650" height="850" rx="54" fill="url(#pack2)" stroke="#9E9E9E" stroke-width="6"/>
  <rect x="175" y="245" width="550" height="110" rx="22" fill="#D2D2D2"/>
  <rect x="210" y="280" width="250" height="22" rx="11" fill="#AEAEAE"/>
  <rect x="210" y="316" width="380" height="16" rx="8" fill="#BCBCBC"/>

  <ellipse cx="450" cy="675" rx="120" ry="210" fill="#C9C9C9"/>
  <ellipse cx="450" cy="675" rx="86" ry="165" fill="#E1E1E1"/>
  <path d="M332 675C286 675 252 714 252 758C290 752 316 728 332 695V675Z" fill="#B0B0B0"/>
  <path d="M568 675C614 675 648 714 648 758C610 752 584 728 568 695V675Z" fill="#B0B0B0"/>

  <rect x="175" y="915" width="550" height="36" rx="18" fill="#B6B6B6"/>
</svg>
